<?xml version="1.0" encoding="UTF-8"?>
<svg version="1.1" xmlns="http://www.w3.org/2000/svg" width="512" height="512">
<path d="M0 0 C16.73495892 6.98455405 29.45307203 5.20424031 46.57592773 0.73364258 C55.57095318 -1.59769821 64.55366376 -3.28349505 73.7512207 -4.57226562 C74.96076416 -4.7442749 76.17030762 -4.91628418 77.41650391 -5.09350586 C81.94259947 -5.65274288 86.42515201 -5.75065729 90.98168945 -5.77539062 C91.84595551 -5.78245026 92.71022156 -5.78950989 93.60067749 -5.79678345 C118.13865927 -5.95171962 140.02197673 -4.03764328 163.84887695 2.02539062 C184.49214514 7.11994405 198.03275129 3.17596647 217.31298828 -4.63549805 C239.87725542 -13.7068496 263.53724222 -18.69762716 286.82543945 -8.91601562 C319.66636147 6.16713147 338.63210403 39.58121636 350.8137207 72.11523438 C359.48176685 95.9764499 359.48176685 95.9764499 358.7512207 102.42773438 C357.3394398 103.33530781 355.92172332 104.23512882 354.47387695 105.08398438 C346.28104827 111.47476231 343.75126065 124.02179114 342.17944336 133.703125 C341.39203801 140.55184569 341.41834977 147.42533914 341.34558105 154.31256104 C341.08880227 175.89329311 339.73844501 196.93297121 335.3137207 218.11523438 C335.12068359 219.04223145 334.92764648 219.96922852 334.72875977 220.92431641 C333.29466431 227.24907506 331.53437824 233.51088805 326.9621582 238.30273438 C321.62214822 241.5749107 316.96240223 242.6183762 310.7512207 241.42773438 C305.28265464 239.42459662 302.03840721 235.74503105 298.5090332 231.23242188 C297.80149902 230.33249512 297.09396484 229.43256836 296.36499023 228.50537109 C295.56617432 227.47694092 295.56617432 227.47694092 294.7512207 226.42773438 C294.61135742 227.07508545 294.47149414 227.72243652 294.32739258 228.3894043 C283.81642267 276.30134553 260.73632859 316.33884386 218.93481445 343.24023438 C216.7512207 344.42773438 216.7512207 344.42773438 214.7512207 344.42773438 C214.5655957 345.08773438 214.3799707 345.74773437 214.1887207 346.42773438 C210.6665215 353.77841096 203.49087011 361.06863286 196.16137695 364.71679688 C192.96771761 366.98393268 192.71558963 368.7257168 191.8137207 372.49023438 C186.65352537 390.96045734 172.11295475 403.5822312 155.91918945 412.84179688 C152.59315887 414.50686274 149.25835308 415.75704337 145.7512207 416.99023438 C140.54965948 418.87889648 138.29347917 420.34321745 135.7512207 425.42773438 C133.3762207 427.99023438 133.3762207 427.99023438 130.7512207 430.42773438 C129.8437207 431.27335937 128.9362207 432.11898438 128.0012207 432.99023438 C119.67352395 439.67762722 109.12093275 441.70238203 98.60668945 441.31054688 C88.36451109 439.99503773 77.78161673 435.32620759 70.9855957 427.35742188 C70.49575195 426.679375 70.0059082 426.00132812 69.5012207 425.30273438 C69.00106445 424.61953125 68.5009082 423.93632812 67.9855957 423.23242188 C66.7512207 421.42773437 66.7512207 421.42773437 65.7512207 419.42773438 C63.15930186 418.32415558 60.57094243 417.30037925 57.9387207 416.30273438 C40.61350603 409.42773548 24.01948084 397.10899932 15.9387207 379.86523438 C14.47929141 376.47744441 13.41664174 373.18118821 12.5012207 369.61523438 C11.02650614 364.91614389 8.29354879 363.38112037 4.16918945 360.95898438 C-1.31632694 357.48511939 -6.46560635 352.34197689 -9.2487793 346.42773438 C-9.2487793 345.76773437 -9.2487793 345.10773438 -9.2487793 344.42773438 C-9.95260742 344.17636719 -10.65643555 343.925 -11.3815918 343.66601562 C-42.93809361 330.03739018 -66.12896973 295.09181269 -78.49194336 264.35839844 C-83.33115558 252.01372418 -86.34848742 239.33636464 -89.2487793 226.42773438 C-90.10149414 227.54921875 -90.10149414 227.54921875 -90.97143555 228.69335938 C-100.30537128 240.59841264 -100.30537128 240.59841264 -107.6237793 241.82617188 C-113.05525893 242.17391905 -116.84943818 241.12775617 -121.4597168 238.30273438 C-126.70613875 232.80430089 -128.30599307 225.34387515 -129.8112793 218.11523438 C-130.02107422 217.11089355 -130.23086914 216.10655273 -130.44702148 215.07177734 C-134.62909442 194.14530297 -135.65675814 173.32048031 -135.78295898 152.04150391 C-135.93130937 136.45730551 -136.46473921 118.25947555 -147.9362793 106.30273438 C-150.30269827 104.32450593 -150.30269827 104.32450593 -153.2487793 102.42773438 C-152.37146475 94.03321935 -149.97243428 86.38327842 -147.2487793 78.42773438 C-146.98210449 77.64205078 -146.71542969 76.85636719 -146.44067383 76.046875 C-139.69504438 56.49274268 -130.94868054 36.15349902 -117.2487793 20.42773438 C-116.49983398 19.55503906 -115.75088867 18.68234375 -114.97924805 17.78320312 C-112.78057799 15.28488468 -110.533392 12.84745858 -108.2487793 10.42773438 C-107.59135742 9.71746094 -106.93393555 9.0071875 -106.2565918 8.27539062 C-75.83884153 -23.54719549 -36.40420489 -15.40954855 0 0 Z " fill="#F4DBB3" transform="translate(153.248779296875,42.572265625)"/>
<path d="M0 0 C5.39059429 5.49591674 8.86257416 11.4993619 9.19921875 19.2421875 C10.50503906 19.21898437 11.81085938 19.19578125 13.15625 19.171875 C32.301586 19.19432409 49.73064493 25.51270508 63.94921875 38.4921875 C72.26257045 47.17983703 74.72092838 56.62420962 74.46484375 68.28515625 C73.71497419 79.45600721 69.34383836 86.73845599 61.19921875 94.2421875 C57.68618772 97.17173933 54.00143567 99.70737622 50.19921875 102.2421875 C49.16979567 105.0064771 49.16979567 105.0064771 48.38671875 108.2421875 C42.98028974 126.71754076 28.66307674 139.33829005 12.3671875 148.65625 C9.04115692 150.32131586 5.70635112 151.5714965 2.19921875 152.8046875 C-3.00234247 154.69334961 -5.25852279 156.15767057 -7.80078125 161.2421875 C-10.17578125 163.8046875 -10.17578125 163.8046875 -12.80078125 166.2421875 C-13.70828125 167.0878125 -14.61578125 167.9334375 -15.55078125 168.8046875 C-23.878478 175.49208035 -34.4310692 177.51683515 -44.9453125 177.125 C-55.18749087 175.80949085 -65.77038523 171.14066071 -72.56640625 163.171875 C-73.05625 162.49382812 -73.54609375 161.81578125 -74.05078125 161.1171875 C-74.80101562 160.09238281 -74.80101562 160.09238281 -75.56640625 159.046875 C-76.80078125 157.2421875 -76.80078125 157.2421875 -77.80078125 155.2421875 C-80.3927001 154.1386087 -82.98105952 153.11483238 -85.61328125 152.1171875 C-102.93849592 145.2421886 -119.53252111 132.92345244 -127.61328125 115.6796875 C-129.07271054 112.29189753 -130.13536021 108.99564134 -131.05078125 105.4296875 C-132.52679425 100.72645965 -135.26719543 99.1972024 -139.38671875 96.76171875 C-146.22784892 92.45557047 -150.80518718 86.67185399 -153.80078125 79.2421875 C-154.1565625 78.50742187 -154.51234375 77.77265625 -154.87890625 77.015625 C-157.65778873 68.65542771 -156.88513543 57.25888025 -153.0546875 49.37109375 C-144.88021171 35.49231087 -132.40808618 26.85390255 -117.16015625 22.109375 C-114.04720147 21.36371374 -110.96071331 20.74847496 -107.80078125 20.2421875 C-107.053125 20.11328125 -106.30546875 19.984375 -105.53515625 19.8515625 C-100.63160781 19.11796076 -95.74358333 19.13921246 -90.80078125 19.2421875 C-90.75953125 18.2934375 -90.71828125 17.3446875 -90.67578125 16.3671875 C-89.51846281 8.5354709 -84.21812789 1.71723564 -78.19921875 -3.16015625 C-70.8411836 -8.06151842 -62.57255846 -11.55535446 -53.80078125 -12.7578125 C-52.97449219 -12.87898438 -52.14820313 -13.00015625 -51.296875 -13.125 C-33.25581535 -15.27837248 -14.09974695 -12.03360046 0 0 Z " fill="#D3AE90" transform="translate(296.80078125,306.7578125)"/>
<path d="M0 0 C0.94101562 0.84949219 1.88203125 1.69898437 2.8515625 2.57421875 C26.09870444 24.23090628 47.31596177 62.84721557 50.25390625 94.7578125 C50.17011719 95.49773437 50.08632813 96.23765625 50 97 C48.5882191 97.90757344 47.17050262 98.80739445 45.72265625 99.65625 C37.52982756 106.04702793 35.00003995 118.59405677 33.42822266 128.27539062 C32.6408173 135.12411131 32.66712906 141.99760477 32.59436035 148.88482666 C32.33758157 170.46555873 30.98722431 191.50523684 26.5625 212.6875 C26.36946289 213.61449707 26.17642578 214.54149414 25.97753906 215.49658203 C24.54344361 221.82134069 22.78315753 228.08315368 18.2109375 232.875 C12.86698113 236.14959454 8.21521811 237.18337753 2 236 C-8.98668204 232.09226021 -15.41630007 220.10282838 -20.18701172 210.16870117 C-21.14091993 208.11944978 -22.07342867 206.06173458 -23 204 C-23.53496094 202.83984375 -24.06992187 201.6796875 -24.62109375 200.484375 C-35.05925958 176.30036483 -37.77130601 149.49252258 -41.15966797 123.61669922 C-46.93501212 67.6064635 -46.93501212 67.6064635 -73 19 C-73.51820313 18.40058594 -74.03640625 17.80117187 -74.5703125 17.18359375 C-83.51023129 7.53107274 -94.87154335 2.37419748 -107 -2 C-104.79508039 -4.46214573 -102.85044875 -5.68519422 -99.7890625 -6.90234375 C-98.9626123 -7.23347168 -98.13616211 -7.56459961 -97.28466797 -7.90576172 C-96.40697754 -8.24623535 -95.52928711 -8.58670898 -94.625 -8.9375 C-93.72539551 -9.29086426 -92.82579102 -9.64422852 -91.89892578 -10.00830078 C-81.82460023 -13.91717517 -71.70665531 -17.31225138 -61 -19 C-60.22527344 -19.12375 -59.45054687 -19.2475 -58.65234375 -19.375 C-37.03372298 -22.18717831 -15.88689767 -14.67867082 0 0 Z " fill="#95594F" transform="translate(462,48)"/>
<path d="M0 0 C0 0.66 0 1.32 0 2 C-1.02738281 2.4125 -2.05476562 2.825 -3.11328125 3.25 C-25.37271679 12.42373251 -39.92398347 27.19587417 -49.25 49.25 C-58.03751682 71.89590215 -61.29955384 96.46267117 -64 120.4375 C-65.65151198 135.07476428 -67.66958716 149.48252025 -70.5977478 163.92204285 C-71.13282175 166.68613151 -71.54681171 169.46223706 -71.9375 172.25 C-75.62474992 194.65957927 -85.51407981 222.31793425 -102.77734375 237.5703125 C-107.4420815 240.70940661 -112.62297263 240.95086713 -118 240 C-123.79260058 237.84392054 -126.49252007 234.80191992 -129.07617188 229.31103516 C-130.71661624 225.20732311 -131.66326097 221.00579896 -132.5625 216.6875 C-132.77229492 215.68315918 -132.98208984 214.67881836 -133.19824219 213.64404297 C-137.38031513 192.71756859 -138.40797885 171.89274593 -138.53417969 150.61376953 C-138.68253007 135.02957114 -139.21595991 116.83174118 -150.6875 104.875 C-153.05391897 102.89677155 -153.05391897 102.89677155 -156 101 C-155.12268545 92.60548497 -152.72365498 84.95554404 -150 77 C-149.7333252 76.21431641 -149.46665039 75.42863281 -149.19189453 74.61914062 C-142.44626509 55.06500831 -133.69990124 34.72576464 -120 19 C-119.25105469 18.12730469 -118.50210938 17.25460938 -117.73046875 16.35546875 C-115.53179869 13.8571503 -113.2846127 11.41972421 -111 9 C-110.34257813 8.28972656 -109.68515625 7.57945313 -109.0078125 6.84765625 C-77.74577316 -25.85821222 -36.89203963 -16.44283214 0 0 Z " fill="#965A50" transform="translate(156,44)"/>
<path d="M0 0 C0.85851562 0.19851562 1.71703125 0.39703125 2.6015625 0.6015625 C3.47554688 0.81554688 4.34953125 1.02953125 5.25 1.25 C6.95771348 1.62781272 8.66600843 2.0030113 10.375 2.375 C11.65375 2.66375 12.9325 2.9525 14.25 3.25 C11.70549765 5.79450235 9.08103704 6.79816137 5.8125 8.3125 C-15.50138114 18.65672726 -28.07620237 39.49401544 -35.75 61.25 C-42.54652258 82.74985147 -45.85781323 104.76940828 -45.953125 127.29296875 C-45.96004868 128.40803802 -45.96697235 129.5231073 -45.97410583 130.67196655 C-45.99131579 134.26051386 -45.99769592 137.84891334 -46 141.4375 C-46.00133942 142.66387177 -46.00267883 143.89024353 -46.00405884 145.15377808 C-45.99942861 164.71331451 -45.20224951 183.84350329 -42.75 203.25 C-42.50735008 205.33067529 -42.26514153 207.41140212 -42.0234375 209.4921875 C-37.97502389 242.83222865 -27.62808878 272.36585052 -8.75 300.25 C-9.33007812 300.94222656 -9.33007812 300.94222656 -9.921875 301.6484375 C-18.38625968 312.2498698 -19.87468959 322.01528064 -18.75 335.25 C-17.82546209 338.6248382 -17.82546209 338.6248382 -16.75 341.25 C-45.21721883 331.08313613 -68.03566718 299.29459783 -80.734375 273.22949219 C-86.4941238 261.03133567 -90.85525354 248.40983265 -94.0625 235.3125 C-94.32003052 234.28394897 -94.32003052 234.28394897 -94.58276367 233.23461914 C-96.49771903 225.00240887 -96.21506906 218.95669424 -92.0625 211.5 C-91.32040295 210.08464848 -90.5808288 208.66797137 -89.84375 207.25 C-89.4828125 206.56421875 -89.121875 205.8784375 -88.75 205.171875 C-79.70529272 187.7890782 -77.04763087 168.25855364 -74.20068359 149.10351562 C-73.78302823 146.45911916 -73.29186404 143.84179238 -72.77734375 141.21484375 C-71.54570499 134.57632864 -70.85798603 127.88206713 -70.10205078 121.17675781 C-61.29931441 43.14532173 -61.29931441 43.14532173 -35.75 18.25 C-35.01523438 17.48300781 -34.28046875 16.71601562 -33.5234375 15.92578125 C-26.57092034 9.07790064 -18.5537198 5.19323432 -9.75 1.25 C-8.86441406 0.83105469 -7.97882813 0.41210938 -7.06640625 -0.01953125 C-4.31103354 -0.88842619 -2.79103913 -0.67495717 0 0 Z " fill="#E6C8A4" transform="translate(160.75,45.75)"/>
<path d="M0 0 C0.90427734 -0.01224609 1.80855469 -0.02449219 2.74023438 -0.03710938 C19.93510984 -0.07398187 33.65833829 5.47841311 46.19140625 17.31640625 C65.3147663 37.63731527 73.20207179 67.10978632 79.0625 93.625 C79.46894824 95.42798357 79.87649979 97.23071878 80.28515625 99.03320312 C80.89499319 101.72540493 81.5042406 104.41772366 82.11036682 107.11076355 C86.46384467 127.24864315 86.46384467 127.24864315 92.25 147 C92.54213379 147.85907959 92.83426758 148.71815918 93.13525391 149.60327148 C97.88465831 163.13693918 104.69186417 180.46722567 117.5 188.125 C119.96971273 189.86367776 120.79907368 190.68530218 121.609375 193.625 C122.21812812 206.61173318 119.03260252 224.17545149 111.9375 235.1875 C108.3299647 238.96832302 104.10360964 240.51048128 98.9375 240.8125 C92.23401119 240.3928923 88.37510515 237.62940428 83.72265625 232.96875 C77.14450921 225.502272 72.9794377 217.1813059 68.9375 208.1875 C68.40253906 207.02734375 67.86757813 205.8671875 67.31640625 204.671875 C56.87824042 180.48786483 54.16619399 153.68002258 50.77783203 127.80419922 C45.00248788 71.7939635 45.00248788 71.7939635 18.9375 23.1875 C18.41929687 22.58808594 17.90109375 21.98867187 17.3671875 21.37109375 C8.9640934 12.2981878 -1.50967512 7.06328641 -13.0625 3.1875 C-13.0625 2.5275 -13.0625 1.8675 -13.0625 1.1875 C-8.72544838 -0.25818387 -4.54329595 0.00314415 0 0 Z " fill="#824641" transform="translate(370.0625,43.8125)"/>
<path d="M0 0 C-3.46169862 1.15389954 -4.96583122 0.77398398 -8.5 0.0625 C-26.40874824 -3.08014092 -42.06816571 1.808957 -56.890625 11.984375 C-59.34222631 13.91173452 -61.67566216 15.92158187 -64 18 C-64.81726563 18.67546875 -65.63453125 19.3509375 -66.4765625 20.046875 C-99.50909292 48.06827852 -116.62541941 97.96389007 -127.9375 138.23046875 C-129.52211059 143.85234089 -131.26391328 149.42318513 -133 155 C-133.33 155 -133.66 155 -134 155 C-134.03738281 153.9584375 -134.07476562 152.916875 -134.11328125 151.84375 C-135.09962232 127.56892864 -135.09962232 127.56892864 -146.6875 106.875 C-149.05391897 104.89677155 -149.05391897 104.89677155 -152 103 C-151.12268545 94.60548497 -148.72365498 86.95554404 -146 79 C-145.7333252 78.21431641 -145.46665039 77.42863281 -145.19189453 76.61914062 C-138.44626509 57.06500831 -129.69990124 36.72576464 -116 21 C-115.25105469 20.12730469 -114.50210938 19.25460938 -113.73046875 18.35546875 C-111.53179869 15.8571503 -109.2846127 13.41972421 -107 11 C-106.34257813 10.28972656 -105.68515625 9.57945313 -105.0078125 8.84765625 C-75.1865866 -22.35085518 -35.90497724 -15.34121755 0 0 Z " fill="#824641" transform="translate(152,42)"/>
<path d="M0 0 C5.60269241 2.41533393 10.80985632 5.61963293 15.97045898 8.85498047 C20.2142121 11.24920664 24.59546769 12.48461856 29.3125 13.625 C30.38113281 13.88539063 31.44976562 14.14578125 32.55078125 14.4140625 C33.76314453 14.70410156 33.76314453 14.70410156 35 15 C35.1005422 19.30088606 35.1722357 23.60110994 35.21972656 27.90283203 C35.23956904 29.35933375 35.26665236 30.81575887 35.30175781 32.27197266 C35.6248902 46.0431149 34.47275342 58.93729236 24.625 69.5625 C23.75875 70.366875 22.8925 71.17125 22 72 C20.63875 73.2684375 20.63875 73.2684375 19.25 74.5625 C10.92230325 81.24989285 0.36971205 83.27464765 -10.14453125 82.8828125 C-21.05751766 81.48114452 -32.2162557 76.26705742 -39.0625 67.4375 C-45.0728266 59.16555566 -47.13768598 49.55918069 -47.09765625 39.51171875 C-47.0962413 38.80852005 -47.09482635 38.10532135 -47.09336853 37.3808136 C-47.08780109 35.14966456 -47.07525475 32.91861836 -47.0625 30.6875 C-47.05748079 29.16862125 -47.05291862 27.64974091 -47.04882812 26.13085938 C-47.03784236 22.42053988 -47.02060034 18.71027999 -47 15 C-46.08871338 14.75838135 -45.17742676 14.5167627 -44.23852539 14.26782227 C-37.31055556 12.37106844 -30.78953901 10.34671225 -24.4375 6.9375 C-23.77943359 6.59912109 -23.12136719 6.26074219 -22.44335938 5.91210938 C-19.6739174 4.47599954 -16.98522425 2.99051379 -14.359375 1.3046875 C-9.62985418 -1.31064355 -5.20386894 -1.079526 0 0 Z " fill="#FE7F86" transform="translate(262,401)"/>
<path d="M0 0 C5.83654906 5.86759454 8.54218023 10.97716934 8.890625 19.33984375 C8.5908157 25.62902515 7.34481206 29.51808523 3.203125 34.21484375 C2.54570312 35.065625 2.54570312 35.065625 1.875 35.93359375 C-3.8420103 42.55328989 -12.13772793 46.29173308 -19.796875 50.21484375 C-20.7252417 50.70210937 -20.7252417 50.70210937 -21.67236328 51.19921875 C-31.2470117 56.14502893 -40.2245566 58.3601707 -50.81640625 55.359375 C-53.9198882 54.14207887 -56.83293655 52.74105086 -59.796875 51.21484375 C-60.40208984 50.91481445 -61.00730469 50.61478516 -61.63085938 50.30566406 C-85.31198941 38.56087713 -85.31198941 38.56087713 -89.796875 26.21484375 C-91.18446067 17.99316264 -90.46164547 11.26382811 -85.61328125 4.390625 C-77.54891909 -5.26926687 -66.28276831 -11.07355752 -53.796875 -12.78515625 C-52.97058594 -12.90632813 -52.14429688 -13.0275 -51.29296875 -13.15234375 C-33.32202679 -15.29734701 -13.98728418 -12.11479291 0 0 Z " fill="#5D5360" transform="translate(296.796875,306.78515625)"/>
<path d="M0 0 C8.95780545 4.75414256 13.95704826 10.93364479 17.125 20.4375 C17.3984293 24.59950927 17.43843363 28.76159931 17.47509766 32.93188477 C17.49155042 34.29827026 17.51869787 35.66457356 17.55712891 37.03051758 C17.81042701 46.09969103 17.15042571 52.76716473 12.125 60.4375 C11.526875 61.365625 10.92875 62.29375 10.3125 63.25 C4.41142839 69.15107161 -2.75634548 72.71142929 -11.125 72.8125 C-20.29933643 72.63666717 -26.48061715 69.56686615 -33.15234375 63.359375 C-42.50076653 52.9298421 -41.69287054 38.30407154 -41.11328125 25.21777344 C-40.42249386 17.15764356 -36.98599539 10.26348953 -30.8671875 4.90625 C-21.61584698 -1.91434615 -11.07809564 -4.40062521 0 0 Z " fill="#4D414F" transform="translate(180.875,187.5625)"/>
<path d="M0 0 C5.88990443 3.61425954 9.77316832 9.70211008 12.15234375 16.09765625 C14.84520976 28.49476749 14.87916807 44.51751925 9 56 C4.2473618 63.1116959 -1.76218468 67.62197049 -10 70 C-18.89410187 71.07225847 -25.49258781 69.85939438 -33 65 C-33.928125 64.401875 -34.85625 63.80375 -35.8125 63.1875 C-43.87980954 55.12019046 -45.41626738 46.51927374 -45.48046875 35.46459961 C-45.49971145 33.46744776 -45.56203297 31.4708611 -45.625 29.47460938 C-45.70336442 19.65456851 -43.85641997 11.56195479 -37.25732422 4.00415039 C-35.60008838 2.41624525 -33.94732983 1.21256414 -32 0 C-31.34386719 -0.40992188 -30.68773437 -0.81984375 -30.01171875 -1.2421875 C-20.31372705 -6.38371875 -9.41877472 -5.0811811 0 0 Z " fill="#4C404F" transform="translate(359,190)"/>
<path d="M0 0 C5.65725448 2.43885577 10.86135204 5.71636035 16.11791992 8.90380859 C20.30608976 11.34314996 24.62671785 12.49217355 29.3125 13.625 C31.189375 14.07875 33.06625 14.5325 35 15 C35 20.28 35 25.56 35 31 C22.78025469 31 12.60456358 26.82668329 2 21 C2.05800781 22.02480469 2.11601562 23.04960937 2.17578125 24.10546875 C2.22269957 25.46610011 2.26819752 26.82678096 2.3125 28.1875 C2.35439453 28.86103516 2.39628906 29.53457031 2.43945312 30.22851562 C2.53581607 34.17939652 2.1466151 35.81458225 -0.33203125 38.94921875 C-3 41 -3 41 -6 41.625 C-8.98752603 41.00259874 -10.94046879 40.32808539 -13.03125 38.04296875 C-15.33558817 33.18341688 -14.92129955 27.28723918 -15 22 C-16.03447266 22.48919922 -16.03447266 22.48919922 -17.08984375 22.98828125 C-27.09745107 27.64202457 -36.06270456 30.36569149 -47 32 C-47 26.39 -47 20.78 -47 15 C-44.03 14.2575 -44.03 14.2575 -41 13.5 C-31.5609509 10.82096165 -22.62334604 6.6102547 -14.359375 1.3046875 C-9.62985418 -1.31064355 -5.20386894 -1.079526 0 0 Z " fill="#E6646E" transform="translate(262,401)"/>
<path d="M0 0 C-2 6 -2 6 -3.125 8.6875 C-5.10026717 16.16529714 -4.78775331 23.18204403 -1 30 C-0.62101562 30.70769531 -0.24203125 31.41539062 0.1484375 32.14453125 C7.39292944 44.43504214 22.38667917 51.95584175 35.75 55.8125 C36.91789062 56.10060547 36.91789062 56.10060547 38.109375 56.39453125 C40 57 40 57 42 59 C40.43880578 59.79423861 38.87598036 60.58527123 37.3125 61.375 C36.44238281 61.81585938 35.57226562 62.25671875 34.67578125 62.7109375 C26.60163682 66.60067131 18.75776066 67.58301604 9.9453125 65.16015625 C6.86646878 63.92110939 3.95081957 62.51945187 1 61 C0.39478516 60.6999707 -0.21042969 60.39994141 -0.83398438 60.09082031 C-24.51511441 48.34603338 -24.51511441 48.34603338 -29 36 C-30.38773176 27.77745334 -29.65743348 21.06258043 -24.828125 14.1796875 C-18.70259906 6.87617581 -10.05155192 -0.58916734 0 0 Z " fill="#4C404E" transform="translate(236,297)"/>
<path d="M0 0 C9.97164178 -0.56266317 17.20589084 0.44452393 25.75 5.6875 C34.53193769 14.71338041 36.35951274 23.42104284 36.375 35.625 C36.39949219 36.64851563 36.42398438 37.67203125 36.44921875 38.7265625 C36.47845717 46.21159887 36.47845717 46.21159887 34.13671875 50.0703125 C27.9927895 55.6189433 24.0806531 57.43140903 15.796875 57.34375 C11.49224426 56.81468924 8.92405124 55.13291204 6 52 C3.11199388 48.0530583 2.90497641 44.86370176 2.75 40.125 C2.42912516 34.21069336 0.7008769 31.99522534 -3.39453125 27.93359375 C-5.72490593 25.12693812 -6.13485355 22.70031715 -6.27734375 19.11328125 C-5.82292838 15.65076411 -4.26257967 13.57682684 -2 11 C-1.01 10.34 -0.02 9.68 1 9 C1.57748803 7.03638136 1.57748803 7.03638136 1.6875 4.875 C1.790625 3.59625 1.89375 2.3175 2 1 C1.34 0.67 0.68 0.34 0 0 Z " fill="#5E5460" transform="translate(336,186)"/>
<path d="M0 0 C11.17808681 -0.57241981 18.5126032 0.19393596 27.3125 7.25 C31.87983214 11.47159783 34.0614438 16.1843314 36 22 C36.08378628 24.2838517 36.10729915 26.570101 36.09765625 28.85546875 C36.0962413 29.51710526 36.09482635 30.17874176 36.09336853 30.86042786 C36.08777996 32.96949828 36.07522965 35.07846177 36.0625 37.1875 C36.05748352 38.61913909 36.05292087 40.05077985 36.04882812 41.48242188 C36.0378143 44.98831588 36.02055755 48.4941475 36 52 C35.34 51.34 34.68 50.68 34 50 C33.236875 50.78375 32.47375 51.5675 31.6875 52.375 C27.65803125 56.31076018 25.36891527 57.36056697 19.8125 57.5625 C13.76004095 57.48144028 10.76357048 56.22158212 6.48828125 52.01953125 C2.55047781 46.67610769 2.73327613 41.48337295 2.63671875 35.05859375 C1.81222377 31.09798288 0.25585198 30.25102021 -3 28 C-5.68121076 23.97818385 -5.81344335 20.72763609 -5 16 C-3.28922026 12.9282282 -1.19028693 10.59514346 2 9 C2.46523063 7.10466658 2.46523063 7.10466658 2.625 4.9375 C2.74875 3.638125 2.8725 2.33875 3 1 C2.01 0.67 1.02 0.34 0 0 Z " fill="#5E5360" transform="translate(162,186)"/>
<path d="M0 0 C0.66 0.33 1.32 0.66 2 1 C-3.38947278 21.22637431 -15.13395646 34.97547182 -33 45.75 C-45.85755149 53 -45.85755149 53 -52 53 C-51.79141357 52.25661377 -51.58282715 51.51322754 -51.36791992 50.74731445 C-48.97579805 41.47828464 -48.46215006 32.71234975 -48.3125 23.1875 C-48.27922482 21.70505001 -48.24472631 20.22262695 -48.20898438 18.74023438 C-48.12527274 15.16035487 -48.05792907 11.58040072 -48 8 C-46.94506348 8.00797607 -45.89012695 8.01595215 -44.80322266 8.02416992 C-29.3812706 8.1072068 -15.3003684 7.25641117 -1 1 C-0.67 0.67 -0.34 0.34 0 0 Z " fill="#BC8D78" transform="translate(345,408)"/>
<path d="M0 0 C0.71671875 0.28875 1.4334375 0.5775 2.171875 0.875 C18.08763093 7.20612943 33.06576774 8.13986671 50 8 C50.01458252 8.90129639 50.02916504 9.80259277 50.04418945 10.73120117 C50.10598511 14.14044329 50.18026194 17.54897448 50.26245117 20.95776367 C50.29529237 22.42087906 50.3234448 23.88410878 50.34643555 25.34741211 C50.50171215 34.9778654 51.38323192 43.67403667 54 53 C35.79158376 49.53980992 19.85592469 37.0717352 8.75390625 22.60546875 C4.03388667 15.59376928 1.49048908 8.26543945 0 0 Z " fill="#BC8D78" transform="translate(165,408)"/>
<path d="M0 0 C3.78171013 2.03630545 7.09528802 4.08475871 9 8 C9.65745489 11.82054344 9.87656941 15.35469314 8.015625 18.84765625 C5.77234531 21.66560326 3.47106305 23.9790991 0 25 C-4.18575059 25.4650834 -6.46104738 25.26947631 -10.25 23.375 C-14.13697012 20.01807126 -15.69814904 17.06983519 -16.4375 12 C-15.72951443 7.1452418 -13.45227831 4.17752296 -9.6875 1.125 C-6.16108808 -0.35117243 -3.79611 -0.46618895 0 0 Z " fill="#F9F9F9" transform="translate(346,194)"/>
<path d="M0 0 C3.0482673 2.46455654 4.83325083 4.74987624 7 8 C7.34832048 12.76931119 6.65284447 16.17071108 3.6875 19.9375 C-0.68243021 23.29116737 -3.3644493 24.67626608 -9 24 C-12.76115969 21.93504958 -16.09650288 19.91274408 -18 16 C-18.65745489 12.17945656 -18.87656941 8.64530686 -17.015625 5.15234375 C-12.15832234 -0.94926792 -7.29574881 -2.04541529 0 0 Z " fill="#FAF9FA" transform="translate(175,195)"/>
</svg>
